<svg enable-background="new 0 0 100 100" height="100" viewBox="0 0 100 100" width="100" xmlns="http://www.w3.org/2000/svg"><g clip-rule="evenodd" fill="#bcbcbc" fill-rule="evenodd"><path d="m22.7 97.8v-64.5h-21.4v64.5zm-10.7-73.3c7.5 0 12.1-5 12.1-11.1-.1-6.4-4.6-11.2-12-11.2-7.3 0-12.1 4.8-12.1 11.2 0 6.2 4.6 11.1 11.8 11.1z"/><path d="m34.6 97.8h21.4v-36c0-1.9.1-3.9.7-5.2 1.5-3.9 5.1-7.8 11-7.8 7.8 0 10.9 5.9 10.9 14.6v34.5h21.4v-37c0-19.8-10.6-29-24.7-29-11.6 0-16.6 6.5-19.5 10.9h.2v-9.4h-21.4c.2 5.9 0 64.4 0 64.4z"/></g></svg>